# xmcd
#
# Track frame offsets:
#	150
#	36387
#	64675
#	94159
#	134504
#	165664
#	201588
#
# Disc length: 2843 seconds
#
# Revision: 1
# Processed by: cddbd v1.5.2PL0 Copyright (c) Steve Scherf et al.
# Submitted via: audiograbber 1.83.01
#
DISCID=670b1907
DTITLE=Grateful Dead - 72-07-18A Roosevelt Stadium, Jersey City NJ
DYEAR=1900
DGENRE=
TTITLE0=Sugar Magnolia
TTITLE1=Ramble On Rose
TTITLE2=Mississippi Half-Step
TTITLE3=Sing Me Back Home
TTITLE4=Not Fade Away
TTITLE5=GDTRFB
TTITLE6=Not Fade Away
EXTD=
EXTT0=
EXTT1=
EXTT2=
EXTT3=
EXTT4=
EXTT5=
EXTT6=
PLAYORDER=
